<svg width="200" height="200" viewBox="0 0 200 200" fill="none" xmlns="http://www.w3.org/2000/svg">
<rect width="200" height="200" rx="100" fill="#3D6BFF"/>
<path d="M144.331 88.7706C143.958 88.7726 143.589 88.7065 143.244 88.5761C142.898 88.4458 142.584 88.2537 142.32 88.0109L101.831 50.5521L61.343 88.0109C60.801 88.4401 60.1037 88.6643 59.3907 88.6388C58.6776 88.6134 58.0012 88.3401 57.4966 87.8736C56.992 87.407 56.6963 86.7817 56.6688 86.1224C56.6413 85.4631 56.8838 84.8185 57.348 84.3174L99.848 45.0249C100.379 44.537 101.097 44.2632 101.845 44.2632C102.594 44.2632 103.312 44.537 103.843 45.0249L146.343 84.3174C146.733 84.6852 146.997 85.151 147.102 85.6567C147.207 86.1623 147.149 86.6855 146.934 87.1606C146.719 87.6358 146.358 88.0419 145.895 88.3282C145.432 88.6146 144.888 88.7684 144.331 88.7706Z" fill="white"/>
<path d="M102 59.4059L68 90.9447V122.824C68 124.213 68.597 125.546 69.6597 126.528C70.7224 127.511 72.1638 128.063 73.6667 128.063H93.5V101.868H110.5V128.063H130.333C131.836 128.063 133.278 127.511 134.34 126.528C135.403 125.546 136 124.213 136 122.824V90.7613L102 59.4059Z" fill="white"/>
<path d="M34.5754 94.05C34.5754 112.05 75.0754 103.05 75.0754 139.05C75.0754 152.55 70.5754 157.05 70.5754 157.05H66.0754C66.0754 157.05 72.8254 152.55 72.8254 139.05C72.8254 130.05 52.5754 121.05 52.5754 121.05C52.5754 121.05 70.5304 130.788 70.5304 140.031C41.8812 144.518 26.0209 111.164 34.5777 94.05H34.5754Z" fill="white"/>
<path d="M169.091 94.5C169.091 112.5 128.591 103.5 128.591 139.5C128.591 153 133.091 157.5 133.091 157.5H137.591C137.591 157.5 130.841 153 130.841 139.5C130.841 130.5 151.091 121.5 151.091 121.5C151.091 121.5 133.136 131.238 133.136 140.481C161.786 144.968 177.646 111.614 169.089 94.5H169.091Z" fill="white"/>
</svg>
